<svg width="1255" height="137" viewBox="0 0 1255 137" fill="none" xmlns="http://www.w3.org/2000/svg">
<path d="M226 132V0H323.327C335.532 0 345.93 1.91211 354.521 5.73633C363.111 9.51758 369.659 14.7813 374.164 21.5273C378.721 28.2305 381 35.9648 381 44.7305C381 53.4961 378.695 61.2305 374.086 67.9336C369.476 74.6367 362.797 79.8574 354.049 83.5957C345.354 87.334 334.825 89.2031 322.463 89.2031H248.158V66.8379H316.963C323.511 66.8379 328.906 65.9141 333.149 64.0664C337.444 62.1758 340.64 59.5762 342.735 56.2676C344.882 52.916 345.956 49.0703 345.956 44.7305C345.956 40.3476 344.882 36.5234 342.735 33.2578C340.64 29.9492 337.444 27.3926 333.149 25.5879C328.854 23.7402 323.406 22.8164 316.806 22.8164H260.022V132H226Z" fill="#3A5151"/>
<path d="M1255 94L1147 46.9675V5L1255 52.0325V94Z" fill="#3A5151"/>
<path d="M1147 137L1255 94.1368V52L1147 94.8632V137Z" fill="#65BB59"/>
<path d="M0 94L108 46.9675V5L0 52.0325V94Z" fill="#3A5151"/>
<path d="M108 137L-1.90735e-06 94.1368V52L108 94.8632V137Z" fill="#65BB59"/>
<path d="M1049.82 132L991 5H1025.08L1076.5 117.486H1056.44L1108.64 5H1140L1080.98 132H1049.82Z" fill="#65BB59"/>
<path d="M885 132V5H987.482V28.5857H916.19V108.414H990V132H885ZM913.865 79.0229V56.1629H979.151V79.0229H913.865Z" fill="#65BB59"/>
<path d="M738 132V5H801.239C816.352 5 829.676 7.66095 841.21 12.9829C852.744 18.1838 861.759 25.5014 868.256 34.9357C874.752 44.37 878 55.5581 878 68.5C878 81.321 874.752 92.5091 868.256 102.064C861.759 111.499 852.744 118.877 841.21 124.199C829.676 129.4 816.352 132 801.239 132H738ZM770.216 107.87H799.648C808.928 107.87 816.949 106.298 823.71 103.153C830.604 99.8872 835.907 95.291 839.619 89.3643C843.464 83.4376 845.386 76.4829 845.386 68.5C845.386 60.3962 843.464 53.4414 839.619 47.6357C835.907 41.7091 830.604 37.1733 823.71 34.0286C816.949 30.7629 808.928 29.13 799.648 29.13H770.216V107.87Z" fill="#65BB59"/>
<path d="M639.739 132C626.52 132 614.256 130.359 602.948 127.077C591.799 123.796 582.084 119.177 573.802 113.221C565.679 107.265 559.308 100.276 554.689 92.2541C550.23 84.232 548 75.4807 548 66C548 56.5193 550.23 47.7679 554.689 39.7459C559.308 31.7238 565.758 24.7348 574.04 18.779C582.322 12.8232 592.038 8.20441 603.187 4.92264C614.336 1.64088 626.44 0 639.5 0C652.719 0 664.824 1.64088 675.813 4.92264C686.962 8.20441 696.598 12.8232 704.721 18.779C713.003 24.7348 719.453 31.7238 724.072 39.7459C728.691 47.6464 731 56.3978 731 66C731 75.4807 728.691 84.2928 724.072 92.4365C719.453 100.459 713.003 107.448 704.721 113.403C696.598 119.238 686.962 123.796 675.813 127.077C664.824 130.359 652.799 132 639.739 132ZM639.5 106.84C646.986 106.84 653.834 105.867 660.046 103.923C666.416 101.978 671.991 99.1823 676.769 95.5359C681.547 91.8895 685.21 87.5746 687.758 82.5912C690.466 77.6077 691.82 72.0773 691.82 66C691.82 59.9226 690.466 54.3923 687.758 49.4088C685.21 44.4254 681.547 40.1105 676.769 36.4641C672.15 32.8177 666.655 30.0221 660.285 28.0773C653.914 26.1326 646.986 25.1602 639.5 25.1602C632.014 25.1602 625.086 26.1326 618.715 28.0773C612.504 30.0221 607.009 32.8177 602.231 36.4641C597.453 40.1105 593.71 44.4254 591.003 49.4088C588.454 54.3923 587.18 59.9226 587.18 66C587.18 71.9558 588.454 77.4862 591.003 82.5912C593.71 87.5746 597.373 91.8895 601.992 95.5359C606.77 99.1823 612.345 101.978 618.715 103.923C625.086 105.867 632.014 106.84 639.5 106.84Z" fill="#3A5151"/>
<path d="M386.752 132V5H464.396C489.671 5 509.32 9.11238 523.342 17.3371C537.365 25.441 544.376 36.6895 544.376 51.0829C544.376 60.5171 541.174 68.6814 534.768 75.5757C528.363 82.349 519.274 87.55 507.502 91.1786C495.73 94.8071 481.708 96.6214 465.434 96.6214H410.123L418.82 83.74V107.87V132H386.752ZM506.309 132L460.865 85.9171H501.789L547.752 132H506.309ZM418.82 87.0057L410.123 73.2171H463.097C476.081 73.2171 485.776 71.2819 492.181 67.4114C498.587 63.42 501.789 57.9771 501.789 51.0829C501.789 44.0676 498.587 38.6248 492.181 34.7543C485.776 30.8838 476.081 28.9486 463.097 28.9486H410.123L418.82 14.9786V87.0057Z" fill="#3A5151"/>
<path d="M160.231 89.6667C160.231 85.2975 160.952 81.4598 162.393 78.1534C163.835 74.847 165.698 71.8949 167.981 69.2971C170.264 66.6992 172.667 64.2785 175.19 62.0349C177.833 59.7913 180.297 57.6067 182.58 55.4812C184.862 53.3557 186.725 51.112 188.167 48.7504C189.609 46.3887 190.33 43.7318 190.33 40.7796C190.33 35.8201 188.287 31.8052 184.202 28.735C180.116 25.6648 174.649 24.1297 167.8 24.1297C161.192 24.1297 155.425 25.3106 150.498 27.6723C145.692 30.0339 141.667 33.3993 138.423 37.7685L120.94 26.6095C125.987 19.8787 132.595 14.6239 140.766 10.8452C148.936 6.9484 158.609 5 169.783 5C178.554 5 186.244 6.29893 192.853 8.8968C199.461 11.3766 204.628 15.0372 208.353 19.8787C212.078 24.602 213.94 30.3882 213.94 37.2371C213.94 41.9605 213.159 46.0935 211.597 49.636C210.155 53.1785 208.233 56.3078 205.83 59.0237C203.547 61.6216 201.083 64.1014 198.44 66.463C195.797 68.7067 193.273 70.9503 190.87 73.1939C188.587 75.4375 186.725 77.8582 185.283 80.4561C183.841 83.0539 183.12 86.1241 183.12 89.6667H160.231ZM171.766 132C167.56 132 164.076 130.642 161.312 127.926C158.669 125.21 157.347 121.963 157.347 118.184C157.347 114.405 158.669 111.217 161.312 108.619C164.076 105.903 167.56 104.545 171.766 104.545C175.971 104.545 179.395 105.903 182.039 108.619C184.682 111.217 186.004 114.405 186.004 118.184C186.004 121.963 184.682 125.21 182.039 127.926C179.395 130.642 175.971 132 171.766 132Z" fill="#65BB59"/>
</svg>
